<?xml version="1.0" encoding="utf-8"?>
<svg viewBox="0 0 64 64" xmlns="http://www.w3.org/2000/svg">
  <g>
    <rect width="64" height="64" style="stroke: rgb(0, 0, 0); fill: rgb(98, 24, 24); paint-order: fill; stroke-width: 0px;" rx="11.546" ry="11.546"/>
    <path d="M 39.814 31.697 C 38.315 33.773 36.978 35.388 35.806 36.541 C 34.633 37.694 33.494 38.498 32.389 38.949 C 31.284 39.4 30.059 39.627 28.713 39.627 C 27.059 39.627 25.459 39.132 23.912 38.141 C 22.365 37.152 21.091 35.72 20.091 33.845 C 19.091 31.971 18.592 29.708 18.592 27.055 C 18.592 25.402 18.904 23.652 19.529 21.807 C 20.154 19.962 21.067 18.227 22.269 16.603 C 23.47 14.978 24.94 13.652 26.68 12.623 C 28.419 11.595 30.395 11.081 32.605 11.081 C 33.758 11.081 34.821 11.283 35.791 11.686 C 36.762 12.09 38.006 13.042 39.526 14.541 C 39.526 16.79 38.949 18.261 37.795 18.953 C 37.2 17.742 36.435 16.762 35.503 16.012 C 34.571 15.262 33.528 14.887 32.375 14.887 C 30.126 14.887 28.419 15.877 27.257 17.857 C 26.094 19.837 25.512 22.393 25.512 25.527 C 25.512 27.373 25.82 28.934 26.435 30.212 C 27.05 31.49 27.843 32.466 28.813 33.139 C 29.784 33.812 30.798 34.148 31.856 34.148 C 32.567 34.148 33.451 33.903 34.508 33.413 C 35.566 32.923 36.978 31.707 38.747 29.765 C 38.958 29.881 39.16 30.193 39.352 30.703 C 39.544 31.212 39.698 31.544 39.814 31.697 Z M 45.408 12.148 C 45.215 12.686 45.018 13.494 44.816 14.57 C 44.615 15.647 44.523 16.819 44.543 18.088 L 44.975 35.157 C 45.052 37.79 44.73 40.093 44.009 42.063 C 43.288 44.033 42.332 45.715 41.14 47.109 C 39.949 48.503 38.651 49.627 37.248 50.483 C 35.845 51.338 34.475 51.963 33.139 52.357 C 31.802 52.751 30.645 52.947 29.665 52.947 C 27.78 52.947 26.04 52.693 24.445 52.184 C 22.85 51.675 21.572 51.078 20.611 50.396 C 19.649 49.714 19.169 49.113 19.169 48.594 C 19.169 48.401 19.394 48.07 19.847 47.599 C 20.298 47.128 20.846 46.623 21.49 46.085 C 22.134 45.547 22.759 45.072 23.364 44.658 C 23.97 44.245 24.426 43.99 24.733 43.894 C 26.022 45.508 27.247 46.676 28.41 47.397 C 29.573 48.118 30.769 48.479 32 48.479 C 33.037 48.479 34.018 48.229 34.941 47.729 C 35.864 47.229 36.599 46.186 37.147 44.6 C 37.694 43.014 37.949 40.617 37.91 37.406 L 37.622 14.743 C 38.045 14.608 38.694 14.32 39.568 13.878 C 40.443 13.436 41.328 12.95 42.221 12.422 C 43.115 11.893 43.812 11.436 44.312 11.052 L 45.408 12.148 Z" style="fill: rgb(255, 247, 212); paint-order: fill; white-space: pre; text-decoration: none solid rgba(0, 0, 0, 0.8);"/>
  </g>
</svg>